<svg xmlns="http://www.w3.org/2000/svg" width="288" height="260" fill="none"><path stroke="#343434" stroke-opacity=".2" d="M1 0v39.76M1 260v-44.34M96.951 0v39.76m0 220.24v-44.34M191.623 0v127.466m0 132.534v-44.34M288 0v82.639M288 260v-44.34M1 39.76h95.951M1 39.76V82.64M96.951 39.76v87.706M1 82.639v88.68m0-88.68h48.615m238.385 0v88.68m0-88.68H143.434M1 171.319h48.615m-48.615 0v44.341m287-44.341H143.434m144.566 0v44.341M96.951 127.466h94.672m-94.672 0v88.194m94.672-88.194v88.194M143.434 0v82.639m0 0H49.615m0 0v88.68m0 0h93.819M1 215.66h95.951m46.483-44.341V260m48.189-44.34H288"/></svg>