<svg aria-hidden="true" style="position:absolute;width:0;height:0" xmlns="http://www.w3.org/2000/svg" overflow="hidden"><defs><symbol id="icon-burger-menu" viewBox="0 0 32 32"><path d="M26.734 14.666H5.267c-.699 0-1.266.567-1.266 1.266v.134c0 .699.567 1.266 1.266 1.266h21.467c.699 0 1.266-.567 1.266-1.266v-.134c0-.699-.567-1.266-1.266-1.266zm0 6.668H5.267c-.699 0-1.266.567-1.266 1.266v.134c0 .699.567 1.266 1.266 1.266h21.467c.699 0 1.266-.567 1.266-1.266V22.6c0-.699-.567-1.266-1.266-1.266zm0-13.334H5.267c-.698 0-1.266.567-1.266 1.266V9.4c0 .699.567 1.266 1.266 1.266h21.467c.699 0 1.266-.567 1.266-1.266v-.134C28 8.568 27.433 8 26.734 8z"/></symbol><symbol id="icon-facebook" viewBox="0 0 32 32"><path d="M18.666 18.001h3.333l1.334-5.334h-4.666v-2.666c0-1.374 0-2.667 2.666-2.667h2v-4.48c-.435-.056-2.076-.186-3.809-.186-3.621 0-6.191 2.209-6.191 6.266v3.734h-4v5.334h4v11.333h5.334V18.002z"/></symbol><symbol id="icon-instagram" viewBox="0 0 32 32"><path d="M16 0c-4.349 0-4.891.021-6.593.093-1.709.085-2.865.35-3.885.745A7.883 7.883 0 002.69 2.686l-.001.001a7.772 7.772 0 00-1.831 2.78L.84 5.52C.446 6.541.179 7.696.095 9.406c-.077 1.703-.093 2.242-.093 6.591 0 4.35.021 4.891.093 6.594.085 1.703.35 2.864.745 3.883a7.85 7.85 0 001.849 2.834 7.756 7.756 0 002.78 1.83l.053.018c1.019.391 2.181.662 3.886.745 1.703.078 2.243.094 6.592.094 4.35 0 4.891-.022 6.594-.094 1.703-.083 2.864-.354 3.885-.745a7.901 7.901 0 002.831-1.848l.001-.001a7.724 7.724 0 001.831-2.78l.018-.053c.391-1.019.662-2.181.745-3.885.077-1.703.093-2.243.093-6.593 0-4.349-.021-4.891-.091-6.593-.085-1.703-.355-2.871-.746-3.885a7.883 7.883 0 00-1.848-2.832l-.001-.001a7.718 7.718 0 00-2.778-1.83l-.053-.018C25.46.442 24.299.176 22.595.092c-1.703-.077-2.245-.093-6.594-.093zm0 2.88c4.271 0 4.782.021 6.469.093 1.558.073 2.406.334 2.969.553a4.97 4.97 0 011.843 1.198c.53.515.937 1.143 1.192 1.839.221.562.48 1.41.553 2.968.072 1.688.093 2.199.093 6.469s-.021 4.782-.098 6.469c-.085 1.558-.344 2.406-.563 2.969a5.237 5.237 0 01-1.198 1.843 5.057 5.057 0 01-1.809 1.18l-.035.012c-.557.219-1.417.48-2.979.553-1.697.072-2.197.093-6.48.093-4.281 0-4.781-.021-6.48-.098-1.557-.085-2.415-.344-2.978-.563-.76-.303-1.28-.64-1.839-1.2-.563-.562-.921-1.097-1.197-1.843-.224-.555-.48-1.416-.563-2.978-.057-1.678-.085-2.198-.085-6.459 0-4.259.027-4.781.085-6.479.083-1.563.339-2.421.563-2.979.275-.76.634-1.28 1.197-1.843.557-.558 1.079-.918 1.84-1.2.562-.217 1.4-.478 2.963-.557 1.696-.059 2.195-.082 6.473-.082l.065.046zm0 4.907h-.005a8.21 8.21 0 00-7.563 11.409l-.02-.054c1.265 3.003 4.184 5.072 7.586 5.072 1.135 0 2.216-.23 3.199-.647l-.054.02c3.003-1.265 5.072-4.184 5.072-7.586v-.006a8.209 8.209 0 00-8.209-8.209H16zm0 13.546h-.003a5.33 5.33 0 01-5.329-5.329v-.007a5.33 5.33 0 015.329-5.329h.009a5.33 5.33 0 015.329 5.329v.007a5.33 5.33 0 01-5.329 5.329h-.005zM26.464 7.458a1.923 1.923 0 01-3.691.75l-.005-.012a1.919 1.919 0 011.773-2.654h.001c1.056 0 1.922.861 1.922 1.918z"/></symbol><symbol id="icon-phone" viewBox="0 0 32 32"><path d="M8.193 1.157c1.169 1.613 2.563 3.693 4.176 6.237.405.688.343 1.512-.181 2.481-.2.407-.707 1.331-1.513 2.787.888 1.251 2.237 2.788 4.056 4.6 1.819 1.813 3.332 3.169 4.539 4.057 1.449-.851 2.381-1.369 2.787-1.575.525-.281 1.032-.427 1.513-.427.361 0 .687.083.968.245 1.856 1.131 3.956 2.524 6.293 4.173.444.327.693.769.757 1.333.063.568-.113 1.168-.513 1.817-.2.281-.524.693-.968 1.244-.444.544-1.113 1.232-2 2.056-.888.827-1.613 1.244-2.181 1.244h-.063c-4.269-.168-9.532-3.368-15.763-9.6C3.863 15.592.663 10.336.5 6.061c0-.563.413-1.3 1.244-2.213.825-.907 1.507-1.563 2.025-1.968.524-.4.968-.725 1.331-.969.407-.3.918-.48 1.471-.48h.043-.002c.693 0 1.213.243 1.581.724zm-2 1.268A19.452 19.452 0 003.8 4.457c-.744.749-1.181 1.3-1.3 1.663.163 3.756 3.156 8.537 8.987 14.349 5.832 5.813 10.627 8.819 14.376 9.019.325-.119.856-.563 1.607-1.331a20.567 20.567 0 001.983-2.358l.041-.061c.12-.163.163-.3.12-.425-2.42-1.693-4.439-3.044-6.057-4.056-.163 0-.363.063-.607.181-.361.2-1.268.707-2.724 1.512l-1.032.607-1.031-.669c-1.332-.925-2.944-2.363-4.844-4.3-1.893-1.893-3.307-3.512-4.237-4.844l-.725-.968.607-1.088c.807-1.449 1.312-2.363 1.512-2.724.12-.244.181-.444.181-.607A135.94 135.94 0 006.36 1.831l.315.475h-.064a.779.779 0 00-.419.122l.003-.002z"/></symbol><symbol id="icon-telegram" viewBox="0 0 32 32"><path d="M27.613 5.527s2.59-.951 2.374 1.358c-.072.951-.719 4.278-1.224 7.876l-1.725 10.661s-.144 1.562-1.439 1.833c-1.295.271-3.238-.951-3.597-1.223-.288-.203-5.397-3.259-7.195-4.753-.504-.408-1.08-1.222.072-2.172l7.555-6.791c.864-.814 1.727-2.715-1.87-.408l-10.073 6.451s-1.151.679-3.309.068l-4.678-1.358s-1.726-1.018 1.224-2.037c7.195-3.191 16.045-6.451 23.887-9.506z"/></symbol><symbol id="icon-checkmark" viewBox="0 0 32 32"><path d="M28.281 6.279l-17.28 17.28-7.28-7.278-1.44 1.438 8 8 .72.686.72-.686 18-18.002-1.44-1.44z"/></symbol><symbol id="icon-close" viewBox="0 0 32 32"><path d="M8.533 24.409l-.947-.943 7.467-7.467-7.467-7.467.944-.944 7.467 7.467 7.467-7.467.944.944-7.467 7.467 7.467 7.467-.944.944-7.467-7.467L8.53 24.41z"/></symbol><symbol id="icon-arrow" viewBox="0 0 32 32"><path d="M22.587 24.413L31 16l-8.413-8.413L21.172 9l6 6H1.048v2h26.124l-6 6 1.413 1.413z"/></symbol><symbol id="icon-search-icon" viewBox="0 0 32 32"><path d="M13.667 2.667h.001c6.075 0 11 4.925 11 11 0 2.686-.963 5.147-2.562 7.057l.014-.017 7.587 7.587a1 1 0 11-1.413 1.414l-.001-.001-7.587-7.587a10.942 10.942 0 01-7.039 2.547c-6.075 0-11-4.925-11-11s4.924-10.999 10.998-11zm-9 11c0 4.971 4.029 9 9 9s9-4.029 9-9-4.029-9-9-9-9 4.029-9 9z"/></symbol><symbol id="icon-arrow-back" viewBox="0 0 32 32"><path d="M16 5.334l-.472-.472.472-.471.472.471-.472.472zm.667 20a.667.667 0 01-1.334 0h1.333zM7.528 12.862l8-8 .944.944-8 8-.944-.944zm8.944-8l8 8-.944.944-8-8 .944-.944zm.195.472v20h-1.334v-20h1.333z"/></symbol></defs></svg>